<svg width="27" height="28" viewBox="0 0 27 28" fill="none" xmlns="http://www.w3.org/2000/svg">
<path d="M7.73333 0.666504H18.9333C23.2 0.666504 26.6667 4.13317 26.6667 8.39984V19.5998C26.6667 21.6508 25.8519 23.6178 24.4016 25.0681C22.9513 26.5184 20.9843 27.3332 18.9333 27.3332H7.73333C3.46667 27.3332 0 23.8665 0 19.5998V8.39984C0 6.34883 0.81476 4.38183 2.26504 2.93155C3.71532 1.48126 5.68233 0.666504 7.73333 0.666504ZM7.46667 3.33317C6.19363 3.33317 4.97273 3.83888 4.07255 4.73906C3.17238 5.63923 2.66667 6.86013 2.66667 8.13317V19.8665C2.66667 22.5198 4.81333 24.6665 7.46667 24.6665H19.2C20.473 24.6665 21.6939 24.1608 22.5941 23.2606C23.4943 22.3604 24 21.1395 24 19.8665V8.13317C24 5.47984 21.8533 3.33317 19.2 3.33317H7.46667ZM20.3333 5.33317C20.7754 5.33317 21.1993 5.50877 21.5118 5.82133C21.8244 6.13389 22 6.55781 22 6.99984C22 7.44186 21.8244 7.86579 21.5118 8.17835C21.1993 8.49091 20.7754 8.6665 20.3333 8.6665C19.8913 8.6665 19.4674 8.49091 19.1548 8.17835C18.8423 7.86579 18.6667 7.44186 18.6667 6.99984C18.6667 6.55781 18.8423 6.13389 19.1548 5.82133C19.4674 5.50877 19.8913 5.33317 20.3333 5.33317ZM13.3333 7.33317C15.1014 7.33317 16.7971 8.03555 18.0474 9.28579C19.2976 10.536 20 12.2317 20 13.9998C20 15.7679 19.2976 17.4636 18.0474 18.7139C16.7971 19.9641 15.1014 20.6665 13.3333 20.6665C11.5652 20.6665 9.86953 19.9641 8.61929 18.7139C7.36905 17.4636 6.66667 15.7679 6.66667 13.9998C6.66667 12.2317 7.36905 10.536 8.61929 9.28579C9.86953 8.03555 11.5652 7.33317 13.3333 7.33317ZM13.3333 9.99984C12.2725 9.99984 11.2551 10.4213 10.5049 11.1714C9.75476 11.9216 9.33333 12.939 9.33333 13.9998C9.33333 15.0607 9.75476 16.0781 10.5049 16.8283C11.2551 17.5784 12.2725 17.9998 13.3333 17.9998C14.3942 17.9998 15.4116 17.5784 16.1618 16.8283C16.9119 16.0781 17.3333 15.0607 17.3333 13.9998C17.3333 12.939 16.9119 11.9216 16.1618 11.1714C15.4116 10.4213 14.3942 9.99984 13.3333 9.99984Z" fill="white"/>
</svg>
